<svg width="40" height="40" viewBox="0 0 40 40" fill="none" xmlns="http://www.w3.org/2000/svg">
<rect width="40" height="40" rx="5" fill="#C4C4C4"/>
<line x1="27.5" x2="27.5" y2="40" stroke="#E18855"/>
<line x1="12.5" x2="12.5" y2="40" stroke="#E18855"/>
<line x1="28" y1="11.5" x2="40" y2="11.5" stroke="#E18855"/>
<line x1="28" y1="11.5" x2="40" y2="11.5" stroke="#E18855"/>
<line x1="28" y1="11.5" x2="40" y2="11.5" stroke="#E18855"/>
<line x1="28" y1="19.5" x2="40" y2="19.5" stroke="#E18855"/>
<line x1="28" y1="19.5" x2="40" y2="19.5" stroke="#E18855"/>
<line x1="28" y1="19.5" x2="40" y2="19.5" stroke="#E18855"/>
<line x1="28" y1="27.5" x2="40" y2="27.5" stroke="#E18855"/>
<line x1="28" y1="27.5" x2="40" y2="27.5" stroke="#E18855"/>
<line x1="28" y1="27.5" x2="40" y2="27.5" stroke="#E18855"/>
<line y1="11.5" x2="12" y2="11.5" stroke="#E18855"/>
<line y1="11.5" x2="12" y2="11.5" stroke="#E18855"/>
<line y1="11.5" x2="12" y2="11.5" stroke="#E18855"/>
<line y1="19.5" x2="12" y2="19.5" stroke="#E18855"/>
<line y1="19.5" x2="12" y2="19.5" stroke="#E18855"/>
<line y1="19.5" x2="12" y2="19.5" stroke="#E18855"/>
<line y1="27.5" x2="12" y2="27.5" stroke="#E18855"/>
<line y1="27.5" x2="12" y2="27.5" stroke="#E18855"/>
<line y1="27.5" x2="12" y2="27.5" stroke="#E18855"/>
</svg>
