<svg width="12" height="12" viewBox="0 0 12 12" fill="none" xmlns="http://www.w3.org/2000/svg">
<path d="M8.25125 6.00039L11.6289 2.62325C12.1237 2.12794 12.1237 1.31735 11.6289 0.82204L11.1783 0.371995C10.683 -0.123826 9.87245 -0.123826 9.37765 0.371995L6 3.74913L2.62235 0.37148C2.12756 -0.123827 1.31696 -0.123827 0.821654 0.37148L0.371094 0.821525C-0.123698 1.31683 -0.123698 2.12743 0.371094 2.62273L3.74823 5.99987L0.371094 9.37752C-0.123698 9.87283 -0.123698 10.6829 0.371094 11.1782L0.821654 11.6288C1.31696 12.1241 2.12756 12.1241 2.62235 11.6288L6 8.25164L9.37765 11.6288C9.87245 12.1241 10.683 12.1241 11.1783 11.6288L11.6289 11.1782C12.1237 10.6829 12.1237 9.87283 11.6289 9.37752L8.25125 6.00039Z" fill="#797979"/>
</svg>
