<svg width="455" height="455" viewBox="0 0 455 455" fill="none" xmlns="http://www.w3.org/2000/svg">
<path d="M427.4 127.4C417 288.9 410.5 389.9 407.9 430.3C407.6 434.3 404.3 437.4 400.3 437.4C365.7 437.4 269.5 437.4 235 437.4C230.7 437.4 227.2 434.1 226.9 429.9C224.3 389.6 217.8 288.7 207.4 127.4H427.4Z" fill="#EF596B"/>
<path d="M337.4 127.4V437.4H317.4V127.4H427.4L407.9 430.3V430.6V430.9V431.2L407.8 431.5L407.7 431.8L407.6 432.1L407.5 432.4L407.4 432.7L407.3 433L407.2 433.3L407.1 433.5L407 433.7L406.9 433.9L406.8 434.1L406.6 434.3L406.4 434.5L406.2 434.7L406 434.9L405.8 435.1L405.6 435.3L405.4 435.5L405.2 435.7L405 435.9L404.8 436.1L404.6 436.3L404.4 436.4L404.2 436.5L404 436.6L403.7 436.7L403.4 436.8L403.1 436.9L402.8 437L402.5 437.1L402.2 437.2L401.9 437.3H401.6H401.3H401H400.7H400.4H368.7V127.3H337.4V127.4Z" fill="#C14856"/>
<path d="M417.5 258.5L415.9 256.4L414.2 254.4L412.4 252.6L410.6 251L408.7 249.6L406.7 248.4L404.7 247.4L402.6 246.6L400.4 246L398.2 245.6L395.9 245.4H393.5L391.1 245.6L388.6 245.9L386.1 246.5L383.5 247.3L380.8 248.2L378 249.3L375.2 250.6L372.3 252.1L369.4 253.8L366.4 255.7L363.3 257.8L360.2 260.1L357 262.6L353.7 265.3L350.4 268.2L347 271.3L343.5 274.5L340 277.9L336.4 281.5L332.8 285.3L329.1 289.3L325.3 293.5L321.4 297.9L317.5 302.5L313.5 307.3L309.5 312.1L305.6 316.8L301.8 321.3L298.1 325.7L294.4 329.9L290.8 334L287.3 338L283.9 341.8L280.6 345.5L277.3 349L274.1 352.4L271 355.6L268 358.7L265.1 361.6L262.2 364.4L259.4 367.1L256.7 369.6L254.1 372L251.5 374.2L249 376.3L246.6 378.2L244.3 380L242.1 381.6L239.9 383.1L237.8 384.4L235.8 385.6L233.9 386.7L232 387.6L230.2 388.4L228.5 389L226.9 389.5L225.4 389.8L224.3 389.9L216 261.9L217.6 262.8L220.3 264.3L223 265.6L225.7 266.8L228.4 267.9L231.1 268.8L233.8 269.6L236.5 270.3L239.2 270.9L241.9 271.3L244.6 271.6L247.3 271.8H250L252.7 271.7L255.4 271.5L258.1 271.2L260.8 270.7L263.5 270.1L266.2 269.4L268.9 268.5L271.6 267.5L274.3 266.4L277 265.2L279.8 263.8L282.5 262.3L285.3 260.7L288.1 258.9L290.9 257L293.7 255L296.5 252.8L299.3 250.5L302.1 248.1L304.9 245.6L307.7 242.9L310.5 240.1L313.3 237.2L316.1 234.2L318.9 231.3L321.7 228.4L324.5 225.6L327.3 222.8L330.1 220L332.9 217.3L335.8 214.6L338.6 212L341.5 209.4L344.4 206.8L347.3 204.3L350.2 201.8L353.1 199.4L356 197L358.9 194.6L361.8 192.3L364.7 190L367.6 187.8L370.5 185.6L373.4 183.5L376.3 181.4L379.3 179.3L382.3 177.3L385.3 175.3L388.3 173.4L391.3 171.5L394.3 169.6L397.3 167.8L400.3 166L403.3 164.3L406.3 162.6L409.3 160.9L412.3 159.3L415.3 157.7L418.4 156.2L421.4 154.7L424.5 153.2L426 152.5L419.1 260L417.5 258.5Z" fill="white"/>
<path d="M426.2 107.4C430 107.4 433.2 110 434.1 113.6C434.8 116.4 435.7 120.1 436.5 123.3C437 125.4 435.4 127.4 433.3 127.4C386.1 127.4 247.8 127.4 200.4 127.4C198.9 127.4 197.8 126 198.1 124.6C198.9 121.2 200 116.2 200.6 113.4C201.4 109.9 204.5 107.4 208.1 107.4C253.1 107.4 381.3 107.4 426.2 107.4Z" fill="#EEEEEE"/>
<path d="M336.6 281.1L332.9 284.9L329.2 288.9L325.4 293.1L321.5 297.5L317.6 302.1L317.4 302.4V232.4L318.7 231L321.5 228.1L324.3 225.3L327.1 222.5L329.9 219.7L332.7 217L335.6 214.3L337.3 212.7V280.1L336.6 281.1ZM417.6 258L416 255.9L414.3 253.9L412.5 252.1L410.7 250.5L408.8 249.1L406.8 247.9L404.8 246.9L402.7 246.1L400.6 245.5L398.4 245.1L396 245H393.6L391.2 245.2L388.7 245.6L386.2 246.1L383.6 246.8L380.9 247.7L378.2 248.8L375.4 250.1L372.5 251.6L369.6 253.3L368.7 253.9V186.7L370.5 185.4L373.4 183.3L376.3 181.2L379.3 179.1L382.3 177.1L385.3 175.1L388.3 173.2L391.3 171.3L394.3 169.4L397.3 167.6L400.3 165.8L403.3 164.1L406.3 162.4L409.3 160.8L412.3 159.2L415.3 157.6L418.3 156.1L421.3 154.6L424.4 153.2L425.9 152.5L419 260L417.6 258Z" fill="#EEEEEE"/>
<path d="M307.4 18.6001H327.4V107.4H307.4V18.6001Z" fill="#EEEEEE"/>
<path d="M231.1 148.8C234.5 148.6 237.4 151.2 237.6 154.6C240.6 208.8 249.2 365.1 252.2 419.3C252.4 422.7 249.8 425.6 246.4 425.8C244.6 425.9 245.4 425.8 243.7 425.9C240.3 426.1 237.4 423.5 237.2 420.1C234.2 365.9 225.6 209.6 222.6 155.4C222.4 152 225 149.1 228.4 148.9C230.2 148.9 229.3 148.9 231.1 148.8Z" fill="#EEEEEE" fill-opacity="0.1"/>
<path d="M407.5 430.6V430.9V431.2L407.4 431.5L407.3 431.8L407.2 432.1L407.1 432.4L407 432.7L406.9 433L406.8 433.3L406.7 433.6L406.6 433.8L406.5 434L406.4 434.2L406.2 434.4L406 434.6L405.8 434.8L405.6 435L405.4 435.2L405.2 435.4L405 435.6L404.8 435.8L404.6 436L404.4 436.2L404.2 436.4L404 436.6L403.8 436.8L403.6 436.9L403.4 437L403.2 437.1L402.9 437.2L402.6 437.3L402.3 437.4L402 437.5L401.7 437.6L401.4 437.7H401.1H400.8H400.5H400.2H399.9L234.9 437.4H234.6H234.3H234H233.7L233.4 437.3L233.1 437.2L232.8 437.1L232.5 437L232.2 436.9L231.9 436.8L231.6 436.7L231.3 436.6L231 436.5L230.7 436.4L230.5 436.2L230.3 436L230.1 435.8L229.9 435.6L229.7 435.4L229.5 435.2L229.3 435L229.1 434.8L228.9 434.6L228.7 434.4L228.5 434.2L228.3 434L228.1 433.8L228 433.5L227.9 433.2L227.8 432.9L227.7 432.6L227.6 432.3L227.5 432L227.4 431.7L227.3 431.4L227.2 431.1L227.1 430.8V430.5V430.2V429.9L220.6 332.3L311.2 241.7L413.2 343.7L407.5 430.6Z" fill="url(#paint0_linear)"/>
<path d="M335.7 327.4C342.1 327.4 347.3 332.6 347.3 339C347.3 346.7 347.3 358 347.3 365.7C347.3 372.1 342.1 377.3 335.7 377.3C272 377.3 92.7001 377.3 29 377.3C22.6 377.3 17.3 372.1 17.3 365.7C17.3 358 17.3 346.7 17.3 339C17.3 332.6 22.5 327.4 29 327.4C92.7001 327.4 272.1 327.4 335.7 327.4Z" fill="#6B3814"/>
<path d="M329.5 377.4C333.9 377.4 337.4 381 337.4 385.3C337.4 395.7 337.4 415.9 337.4 425.5C337.4 432 332.1 437.3 325.6 437.3C266 437.3 98.3 437.3 38.5 437.3C32.4 437.3 27.4 432.3 27.4 426.3C27.4 416.5 27.4 393.8 27.4 383C27.4 379.9 29.9 377.4 33 377.4C93.9 377.4 269 377.4 329.5 377.4Z" fill="#E5C076"/>
<path d="M337.4 308.9C337.4 252.8 292 207.4 235.9 207.4C194.2 207.4 170.6 207.4 128.9 207.4C72.9 207.4 27.4 252.8 27.4 308.9C27.4 310.6 27.4 288.6 27.4 308.9C27.4 313.6 31.2 317.4 35.9 317.4C96.2 317.3 269.1 316.8 329.6 316.7C333.9 316.6 337.4 313.2 337.4 308.9C337.4 310.4 337.4 288.6 337.4 308.9Z" fill="#E5C076"/>
<path d="M335.7 377.4C342.1 377.4 347.3 372.2 347.3 365.8C347.3 364.7 347.3 361.9 347.3 357.4H17.3C17.3 361.9 17.3 364.6 17.3 365.8C17.3 372.2 22.5 377.4 29 377.4C92.7001 377.4 272.1 377.4 335.7 377.4Z" fill="#5F2F0D"/>
<path d="M341.8 352.4C344.9 352.4 347.4 354.9 347.4 358C347.4 360.3 347.4 361.6 347.4 363.9C347.4 367 344.9 369.5 341.8 369.5C276.9 369.5 87.8001 369.5 22.9 369.5C19.8 369.5 17.3 367 17.3 363.9C17.3 361.6 17.3 360.3 17.3 358C17.3 354.9 19.8 352.4 22.9 352.4C87.8001 352.4 276.9 352.4 341.8 352.4Z" fill="#42210A" fill-opacity="0.22"/>
<path d="M338.9 327.4C339.6 327.4 340.2 327.7 340.6 328.1C341.5 329 343.3 330.8 344.2 331.7C344.5 332 344.3 332.4 343.9 332.4C311.6 332.7 215.7 333.7 183.4 334.1C182.7 334.1 182.1 334.2 181.4 334.4C162.6 340.3 107.2 357.8 88.4 363.8C87.8 364 87.1 363.9 86.5 363.7C74.7 357.8 40.1 340.5 28.3 334.6C27.7 334.3 27.4 333.7 27.4 333.1C27.4 332 27.4 329.6 27.4 328.4C27.4 327.8 27.8 327.4 28.4 327.4C90.7 327.4 276.6 327.4 338.9 327.4Z" fill="#422109" fill-opacity="0.43"/>
<path d="M304.9 327.4C306.3 327.4 307.4 328.5 307.4 329.9C307.4 333.4 307.4 341.4 307.4 344.9C307.4 346.3 306.3 347.4 304.9 347.4C303.4 347.4 301.4 347.4 299.9 347.4C298.5 347.4 297.4 346.3 297.4 344.9C297.4 341.4 297.4 333.4 297.4 329.9C297.4 328.5 298.5 327.4 299.9 327.4C301.4 327.4 303.4 327.4 304.9 327.4Z" fill="#3B1A04" fill-opacity="0.41"/>
<path d="M264.9 327.4C266.3 327.4 267.4 328.5 267.4 329.9C267.4 333.4 267.4 341.4 267.4 344.9C267.4 346.3 266.3 347.4 264.9 347.4C263.4 347.4 261.4 347.4 259.9 347.4C258.5 347.4 257.4 346.3 257.4 344.9C257.4 341.4 257.4 333.4 257.4 329.9C257.4 328.5 258.5 327.4 259.9 327.4C261.4 327.4 263.4 327.4 264.9 327.4Z" fill="#3B1A04" fill-opacity="0.41"/>
<path d="M224.9 327.4C226.3 327.4 227.4 328.5 227.4 329.9C227.4 333.4 227.4 341.4 227.4 344.9C227.4 346.3 226.3 347.4 224.9 347.4C223.4 347.4 221.4 347.4 219.9 347.4C218.5 347.4 217.4 346.3 217.4 344.9C217.4 341.4 217.4 333.4 217.4 329.9C217.4 328.5 218.5 327.4 219.9 327.4C221.4 327.4 223.4 327.4 224.9 327.4Z" fill="#3B1A04" fill-opacity="0.41"/>
<path d="M184.9 327.4C186.3 327.4 187.4 328.5 187.4 329.9C187.4 333.4 187.4 341.4 187.4 344.9C187.4 346.3 186.3 347.4 184.9 347.4C183.4 347.4 181.4 347.4 179.9 347.4C178.5 347.4 177.4 346.3 177.4 344.9C177.4 341.4 177.4 333.4 177.4 329.9C177.4 328.5 178.5 327.4 179.9 327.4C181.4 327.4 183.4 327.4 184.9 327.4Z" fill="#3B1A04" fill-opacity="0.41"/>
<path d="M144.9 327.4C146.3 327.4 147.4 328.5 147.4 329.9C147.4 333.4 147.4 341.4 147.4 344.9C147.4 346.3 146.3 347.4 144.9 347.4C143.4 347.4 141.4 347.4 139.9 347.4C138.5 347.4 137.4 346.3 137.4 344.9C137.4 341.4 137.4 333.4 137.4 329.9C137.4 328.5 138.5 327.4 139.9 327.4C141.4 327.4 143.4 327.4 144.9 327.4Z" fill="#3B1A04" fill-opacity="0.41"/>
<path d="M335.3 317.4H335.5H335.7H335.9L336.1 317.5H336.3L336.5 317.6L336.7 317.7L336.9 317.8L337.1 317.9L337.3 318L337.5 318.1L337.7 318.2L337.9 318.3L338.1 318.4L338.2 318.5L338.3 318.6L338.4 318.7L338.5 318.8L338.6 318.9L338.7 319L338.8 319.1L338.9 319.2L339 319.4L339.1 319.6L339.2 319.8L339.3 320L339.4 320.2L339.5 320.4L339.6 320.6L339.7 320.8L339.8 321L339.9 321.2V321.4V321.6V321.8V322V322.2V322.4V322.6V322.8V323V323.2V323.4V323.6L339.8 323.8V324L339.7 324.2L339.6 324.4L339.5 324.6L339.4 324.8L339.3 325L339.2 325.2L339.1 325.4L339 325.6L338.9 325.7L338.8 325.8L338.7 325.9L338.6 326L338.5 326.1L338.4 326.2L338.2 326.3L338 326.4L337.8 326.5L337.6 326.6L337.4 326.7L337.2 326.8L337 326.9L336.8 327L336.6 327.1L336.4 327.2L336.2 327.3H336H335.8H335.6H335.4H335.2H335H334.8H264.3L198.8 327.6H198H197.2H196.4H195.6H194.8H194H193.2L192.4 327.7H191.6L190.8 327.8L190 327.9L189.2 328L188.4 328.1L187.6 328.2L186.8 328.3L186 328.4L185.2 328.5L184.4 328.6L183.6 328.7L182.8 328.8L182 328.9L181.2 329L180.4 329.1L179.6 329.2L178.8 329.3L178 329.4L177.2 329.6L176.4 329.8L175.7 330L174.9 330.2L174.2 330.4L173.5 330.6L172.7 330.8L172 331L171.3 331.2L170.6 331.4L169.9 331.6L169.2 331.8L168.5 332L167.8 332.2L94.3 355.2L93.8999 355.3L93.5 355.4L93.0999 355.5L92.7 355.6L92.3 355.7L91.8999 355.8L91.5 355.9L91.0999 356H90.7H90.3H89.8999H89.5H89.0999H88.7H88.3H87.8999H87.5H87.0999H86.6999H86.3H85.9H85.5L85.0999 355.9L84.6999 355.8L84.3 355.7L83.9 355.6L83.5 355.5L83.0999 355.4L82.6999 355.3L82.3 355.2L81.9 355.1L81.5 355L81.1999 354.9L80.8 354.8L80.4 354.7L80.0999 354.6L79.6999 354.5L79.4 354.3L79.0999 354.1L78.8 353.9L26.1 327.2H25.9H25.7H25.5H25.2999H25.1H24.9H24.7H24.5L24.2999 327.1L24.1 327H26L25.7999 326.9L25.6 326.8L25.4 326.7L25.2 326.6L25 326.5L24.7999 326.4L24.6 326.3L24.4 326.2L24.2 326.1L24.1 326L24 325.9L23.9 325.8L23.7999 325.7L23.7 325.6L23.6 325.4L23.5 325.2L23.4 325L23.2999 324.8L23.2 324.6L23.1 324.4L23 324.2L22.9 324L22.7999 323.8V323.6L22.7 323.4V323.2V323V322.8V322.6V322.4V322.2V322V321.8V321.6V321.4V321.2L22.7999 321L22.9 320.8L23 320.6L23.1 320.4L23.2 320.2L23.2999 320L23.4 319.8L23.5 319.6L23.6 319.4L23.7 319.2L23.7999 319.1L23.9 319L24 318.9L24.1 318.8L24.2 318.7L24.2999 318.6L24.5 318.5L24.7 318.4L24.7999 318.3L25 318.2L25.2 318.1L25.4 318L25.6 317.9L25.7999 317.8L26 317.7L26.2 317.6L26.4 317.5H26.6H26.7999H27H27.2H27.4H27.6H27.7999L334.8 317.4H335H335.3Z" fill="#F7AC06"/>
<path d="M287.4 377.4V437.4H177.4V377.4H287.4Z" fill="#D7B169" fill-opacity="0.45"/>
<path d="M407.2 430.6V430.9V431.2L407.1 431.5L407 431.8L406.9 432.1L406.8 432.4L406.7 432.7L406.6 433L406.5 433.3L406.4 433.5L406.3 433.7L406.2 433.9L406 434.1L405.8 434.3L405.6 434.5L405.4 434.7L405.2 434.9L405 435.1L404.8 435.3L404.6 435.5L404.4 435.7L404.2 435.9L404 436L403.8 436.2L403.6 436.3L403.4 436.4L403.2 436.5L403 436.6L402.7 436.7L402.4 436.8L402.1 436.9L401.8 437L401.5 437.1L401.2 437.2H400.9H400.6H400.3H400H399.7H234.3H234H233.7H233.4H233.1L232.8 437.1L232.5 437L232.2 436.9L231.9 436.8L231.6 436.7L231.3 436.6L231 436.5L230.7 436.4L230.4 436.3L230.1 436.2L229.9 436L229.7 435.8L229.5 435.6L229.3 435.4L229.1 435.2L228.9 435L228.7 434.8L228.5 434.6L228.3 434.4L228.1 434.2L227.9 434L227.7 433.8L227.5 433.6L227.3 433.3L227.2 433L227.1 432.7L227 432.4L226.9 432.1L226.8 431.8L226.7 431.5L226.6 431.2L226.5 430.9L226.4 430.6L226.3 430.3V430V429.7L226.1 427.2H407.4L407.2 430.1V430.6Z" fill="#64180D" fill-opacity="0.47"/>
<path d="M330.1 377.4H330.4H330.7L331 377.5L331.3 377.6L331.6 377.7L331.9 377.8L332.2 377.9L332.5 378L332.8 378.1L333.1 378.2L333.4 378.3L333.7 378.5L334 378.7L334.2 378.9L334.4 379.1L334.6 379.3L334.8 379.5L335 379.7L335.2 379.9L335.4 380.1L335.6 380.3L335.8 380.5L336 380.7L336.2 381L336.4 381.3L336.5 381.6L336.6 381.9L336.7 382.2L336.8 382.5L336.9 382.8L337 383.1L337.1 383.4L337.2 383.7L337.3 384V384.3V384.6V384.9V385.2V387.3H27.3V383V382.8V382.6V382.4V382.2V382L27.4 381.8L27.5 381.6L27.6 381.4L27.7001 381.2L27.8 381L27.9 380.8L28 380.6L28.1 380.4L28.2001 380.2L28.3 380L28.4 379.8L28.5 379.6L28.6 379.4L28.7001 379.2L29 379L29.2001 378.8L29.4 378.7L29.6 378.6L29.8 378.5L30 378.4L30.2001 378.3L30.4 378.2L30.6 378.1L30.8 378L31 377.9L31.2001 377.8L31.4 377.7L31.6 377.6L31.8 377.5L32 377.4H32.2001H32.4001H32.6H32.8H33H329.4H329.7H330.1Z" fill="#C49D57"/>
<path d="M337.4 432.2V432.4V432.6V432.8L337.3 433L337.2 433.2L337.1 433.4L337 433.6V434L336.9 434.2L336.8 434.4L336.7 434.6L336.6 434.8L336.5 435L336.4 435.2L336.3 435.4L336.2 435.6L336.1 435.8L335.9 436L335.7 436.2L335.5 436.3L335.3 436.4L335.1 436.5L334.9 436.6L334.7 436.7L334.5 436.8L334.3 436.9L334.1 437H334L333.8 437.1L333.6 437.2L333.4 437.3L333.2 437.4H333H332.8H332.6H332.4H332.2H332H35.3H35H34.7H34.4H34.1L33.8 437.3L33.5 437.2L33.2 437.1L32.9 437L32.6 436.9L32.3 436.8L32 436.7L31.7 436.6L31.4 436.5L31.1 436.3L30.8 436.1L30.6 435.9L30.4 435.7L30.2 435.5L30 435.3L29.8 435.1L29.6 434.9L29.4 434.7L29.2 434.5L29 434.3L28.8 434.1L28.6 433.8L28.4 433.5L28.3 433.2L28.2 432.9L28.1 432.6L28 432.3L27.9 432L27.8 431.7L27.7 431.4L27.6 431.1L27.5 430.8V430.5V430.2V429.9V429.6V427.5H337.5V431.9V432.1L337.4 432.2Z" fill="#C49D57"/>
<path d="M327.4 377.4V437.4H287.4V377.4H327.4Z" fill="#B18B48" fill-opacity="0.3"/>
<path d="M331.9 317.4H75.1H32.4" stroke="#886D34" stroke-opacity="0.41" stroke-width="6"/>
<path d="M57.4 387.4V427.4H37.4V387.4H57.4Z" fill="#FCE5BE" fill-opacity="0.22"/>
<path d="M77.9 387.4V427.4H67.9V387.4H77.9Z" fill="#FCE5BE" fill-opacity="0.22"/>
<path d="M244.2 208.4L248.3 208.8L252.3 209.4L256.3 210.1L260.2 211L264.1 212L267.9 213.2L271.6 214.5L275.3 216L278.9 217.6L282.4 219.3L285.8 221.2L289.2 223.2L292.5 225.3L295.7 227.5L298.8 229.9L301.8 232.4L304.7 235L307.5 237.7L310.2 240.5L312.8 243.4L315.3 246.4L317.7 249.5L319.9 252.7L322 256L324 259.4L325.9 262.9L327.7 266.4L329.3 270L330.8 273.7L332.1 277.5L333.3 281.3L334.3 285.2L335.2 289.1L335.9 293.1L336.5 297.1L336.9 301.2L337.2 305.3L337.3 309.5V309.8V310.1V310.4V310.7L337.2 311L337.1 311.3L337 311.6V312L336.9 312.3L336.8 312.6L336.7 312.9L336.6 313.2L336.5 313.5L336.4 313.8L336.2 314L336 314.2L335.8 314.4L335.6 314.6L335.4 314.8L335.2 315L335 315.2L334.8 315.4L334.6 315.6L334.4 315.8L334.2 316L334 316.2L333.7 316.3L333.4 316.4L333.1 316.5L332.8 316.6L332.5 316.7L332.2 316.8L331.9 316.9L331.6 317L331.3 317.1H331H330.7H330.4H330.1H329.8L285.6 317.2L285.5 311.8L285.2 306.2L284.7 300.7L283.9 295.3L282.9 289.9L281.7 284.6L280.3 279.4L278.7 274.3L276.9 269.3L274.9 264.4L272.7 259.6L270.4 254.9L267.9 250.3L265.2 245.8L262.3 241.4L259.3 237.1L256 233L252.7 229L249.2 225.1L245.6 221.3L241.8 217.7L237.9 214.2L233.9 210.9L230.2 208.1H235.9L240.1 208.2L244.2 208.4Z" fill="#C49B57" fill-opacity="0.45"/>
<path d="M117.4 244.1C117.4 247.8 115.5 250.9 113.1 250.9C110.7 250.9 108.8 247.9 108.8 244.1C108.8 240.3 110.7 237.3 113.1 237.3C115.5 237.4 117.4 240.4 117.4 244.1Z" fill="#F6DCAA"/>
<path d="M77.4 274.1C77.4 277.8 75.5 280.9 73.1 280.9C70.7 280.9 68.8 277.9 68.8 274.1C68.8 270.3 70.7 267.3 73.1 267.3C75.5 267.4 77.4 270.4 77.4 274.1Z" fill="#F6DCAA"/>
<path d="M146 274.1C146 277.8 144.1 280.9 141.7 280.9C139.3 280.9 137.4 277.9 137.4 274.1C137.4 270.3 139.3 267.3 141.7 267.3C144.1 267.4 146 270.4 146 274.1Z" fill="#F6DCAA"/>
<path d="M177.4 301C177.4 304.5 180.3 307.4 183.8 307.4C204.5 307.4 259.4 307.4 279.8 307.4C283.7 307.4 286.7 303.8 285.9 299.9C283.5 288 279.1 273.8 272.5 257.4C264.8 238.1 251.5 221.5 232.4 207.4C207.2 207.4 191.5 207.4 185.2 207.4C180.9 207.4 177.4 210.9 177.4 215.2C177.4 233.6 177.4 282.3 177.4 301Z" fill="#D7B169" fill-opacity="0.45"/>
<path d="M181.7 244.1C181.7 247.8 179.8 250.9 177.4 250.9C175 250.9 173.1 247.9 173.1 244.1C173.1 240.3 175 237.3 177.4 237.3C179.8 237.3 181.7 240.4 181.7 244.1Z" fill="#F6DCAA"/>
<path d="M214.7 274.1C214.7 277.8 212.8 280.9 210.4 280.9C208 280.9 206.1 277.9 206.1 274.1C206.1 270.3 208 267.3 210.4 267.3C212.7 267.4 214.7 270.4 214.7 274.1Z" fill="#F6DCAA"/>
<path d="M247.4 244.1C247.4 247.8 245.5 250.9 243.1 250.9C240.7 250.9 238.8 247.9 238.8 244.1C238.8 240.3 240.7 237.3 243.1 237.3C245.5 237.3 247.4 240.4 247.4 244.1Z" fill="#F6DCAA"/>
<path d="M284.7 274.1C284.7 277.8 282.8 280.9 280.4 280.9C278 280.9 276.1 277.9 276.1 274.1C276.1 270.3 278 267.3 280.4 267.3C282.7 267.4 284.7 270.4 284.7 274.1Z" fill="#F6DCAA"/>
<path d="M150.4 327.4L87.4 347.4L47.4 327.4" stroke="#FFB615" stroke-width="6"/>
<path d="M337.4 311V311.3V311.6V311.8V312L337.3 312.2V312.4L337.2 312.6L337.1 312.8L337 313L336.9 313.2L336.8 313.4L336.7 313.6L336.6 313.8L336.5 314L336.4 314.2L336.3 314.4L336.2 314.6L336 314.8L335.8 315L335.6 315.2L335.4 315.4L335.2 315.6L335 315.7L334.8 315.8L334.6 315.9L334.4 316L334.2 316.1L334 316.2L333.8 316.3L333.6 316.4L333.4 316.5L333.2 316.6L333 316.7L332.8 316.8L332.6 316.9H332.4H332.2H331.9H331.7H331.4L285.8 317L285.7 312.6L285.4 308.1L285.3 307H337.6V307.2L337.4 311Z" fill="#8C6622"/>
<path d="M337.5 309.9V310.2V310.5L337.4 310.8V311.1L337.3 311.4L337.2 311.7L337.1 312L337 312.3L336.9 312.6L336.8 312.9L336.7 313.2L336.6 313.5L336.5 313.8L336.3 314L336.1 314.2L335.9 314.4L335.7 314.6L335.5 314.8L335.3 315L335.1 315.2L334.9 315.4L334.7 315.6L334.5 315.8L334.3 316L334.1 316.2L333.8 316.4L333.5 316.5L333.2 316.6L332.9 316.7L332.6 316.8L332.3 316.9L332 317L331.7 317.1L331.4 317.2L331.1 317.3H330.8H330.5H330.2H329.9H36.2999H36H35.5999H35.2999H35L34.7 317.2L34.4 317.1L34.0999 317L33.7999 316.9L33.5 316.8L33.2 316.7L32.9 316.6L32.5999 316.4L32.2999 316.3L32 316.1L31.7 315.9L31.4 315.7L31.1 315.5L30.7999 315.3L30.6 315.1L30.4 314.9L30.2 314.7L30 314.5L29.7999 314.3L29.6 314L29.4 313.7L29.2 313.4L29 313.1L28.7999 312.8L28.6 312.5L28.5 312.2L28.4 311.9L28.2999 311.6L28.2 311.3L28.1 311L28 310.7L27.9 310.4L27.7999 310V309.7V309.3V309L27.7 306.7V306.4H337.7L337.8 309.8L337.5 309.9Z" fill="#98722E"/>
<path d="M198.2 121L199.8 114H433.5L435.3 121H198.2Z" fill="#DDDDDD"/>
<path d="M319.9 18.6001H327.4V107.4H319.9V18.6001Z" fill="#DDDDDD"/>
<path d="M208 137.4L207.4 127.4H427.4L426.8 137.4H208Z" fill="#821111" fill-opacity="0.57"/>
<path d="M312.6 101.8L312.1 24.3" stroke="white" stroke-opacity="0.71" stroke-width="3"/>
<path d="M307.4 103.9H327.4V107.4H307.4V103.9Z" fill="#CCCCCC" fill-opacity="0.46"/>
<path d="M224.9 110H232.4V124.8H224.9V110Z" fill="#DDDDDD"/>
<path d="M252.4 110H259.9V124.8H252.4V110V110Z" fill="#DDDDDD"/>
<path d="M282.4 110H289.9V124.8H282.4V110Z" fill="#DDDDDD"/>
<path d="M312.4 110H319.9V124.8H312.4V110Z" fill="#DDDDDD"/>
<path d="M342.4 110H349.9V124.8H342.4V110Z" fill="#DDDDDD"/>
<path d="M372.4 110H379.9V124.8H372.4V110Z" fill="#DDDDDD"/>
<path d="M402.4 110H409.9V124.8H402.4V110Z" fill="#DDDDDD"/>
<defs>
<linearGradient id="paint0_linear" x1="386.584" y1="455.59" x2="243.834" y2="311.16" gradientUnits="userSpaceOnUse">
<stop stop-color="#AD1C1C" stop-opacity="0.01"/>
<stop offset="1" stop-color="#6F2626" stop-opacity="0.24"/>
</linearGradient>
</defs>
</svg>
