<svg width="512" height="512" viewBox="0 0 512 512" fill="none" xmlns="http://www.w3.org/2000/svg">
<path d="M184 328H24V95.9999L24.0001 95.9998C45.2174 74.7825 73.9942 62.8628 104 62.8628C134.006 62.8628 162.783 74.7825 184 95.9998L184 95.9999V328Z" fill="#EF596B"/>
<path d="M88 192H56C53.8783 192 51.8435 191.157 50.3432 189.657C48.8429 188.157 48 186.122 48 184V152C48 149.878 48.8429 147.843 50.3432 146.343C51.8435 144.843 53.8783 144 56 144H88C90.1217 144 92.1565 144.843 93.6568 146.343C95.1571 147.843 96 149.878 96 152V184C96 186.122 95.1571 188.157 93.6568 189.657C92.1565 191.157 90.1217 192 88 192ZM64 176H80V160H64V176Z" fill="#EFEFEF"/>
<path d="M152 192H120C117.878 192 115.843 191.157 114.343 189.657C112.843 188.157 112 186.122 112 184V152C112 149.878 112.843 147.843 114.343 146.343C115.843 144.843 117.878 144 120 144H152C154.122 144 156.157 144.843 157.657 146.343C159.157 147.843 160 149.878 160 152V184C160 186.122 159.157 188.157 157.657 189.657C156.157 191.157 154.122 192 152 192ZM128 176H144V160H128V176Z" fill="#EFEFEF"/>
<path d="M88 256H56C53.8783 256 51.8435 255.157 50.3432 253.657C48.8429 252.157 48 250.122 48 248V216C48 213.878 48.8429 211.843 50.3432 210.343C51.8435 208.843 53.8783 208 56 208H88C90.1217 208 92.1565 208.843 93.6568 210.343C95.1571 211.843 96 213.878 96 216V248C96 250.122 95.1571 252.157 93.6568 253.657C92.1565 255.157 90.1217 256 88 256ZM64 240H80V224H64V240Z" fill="#EFEFEF"/>
<path d="M128 248H112V216C112 213.878 112.843 211.843 114.343 210.343C115.843 208.843 117.878 208 120 208H152V224H128V248Z" fill="#EFEFEF"/>
<path d="M104 112C101.878 112 99.8435 111.157 98.3432 109.657C96.8429 108.157 96 106.122 96 104V24C96 21.8783 96.8429 19.8434 98.3431 18.3431C99.8434 16.8429 101.878 16 104 16C106.122 16 108.157 16.8429 109.657 18.3431C111.157 19.8434 112 21.8783 112 24V104C112 106.122 111.157 108.157 109.657 109.657C108.157 111.157 106.122 112 104 112V112Z" fill="#BC8D5D"/>
<path d="M312 448H488V496H312V448Z" fill="#EF596B"/>
<path d="M376 40H168C159.163 40 152 47.1634 152 56V472C152 480.837 159.163 488 168 488H376C384.837 488 392 480.837 392 472V56C392 47.1634 384.837 40 376 40Z" fill="#606060"/>
<path d="M152 400V408C152 412.243 153.686 416.313 156.686 419.314C159.687 422.314 163.757 424 168 424H376C380.243 424 384.313 422.314 387.314 419.314C390.314 416.313 392 412.243 392 408V120C392 115.757 390.314 111.687 387.314 108.686C384.313 105.686 380.243 104 376 104H168C163.757 104 159.687 105.686 156.686 108.686C153.686 111.687 152 115.757 152 120V400Z" fill="#E2E2E2"/>
<path d="M328 80C332.418 80 336 76.4183 336 72C336 67.5817 332.418 64 328 64C323.582 64 320 67.5817 320 72C320 76.4183 323.582 80 328 80Z" fill="#808080"/>
<path d="M360 80C364.418 80 368 76.4183 368 72C368 67.5817 364.418 64 360 64C355.582 64 352 67.5817 352 72C352 76.4183 355.582 80 360 80Z" fill="#808080"/>
<path d="M240 448H304V464H240V448Z" fill="#2F2F2F"/>
<path d="M240 64H304V80H240V64Z" fill="#2F2F2F"/>
<path d="M184 328H360V392H184V328Z" fill="#E18855"/>
<path d="M320 352H336V368H320V352Z" fill="#E2661E"/>
<path d="M208 352H240V368H208V352Z" fill="#E2661E"/>
<path d="M256 352H304V368H256V352Z" fill="#E2661E"/>
<path d="M248 208H200C197.878 208 195.843 207.157 194.343 205.657C192.843 204.157 192 202.122 192 200V152C192 149.878 192.843 147.843 194.343 146.343C195.843 144.843 197.878 144 200 144H248C250.122 144 252.157 144.843 253.657 146.343C255.157 147.843 256 149.878 256 152V200C256 202.122 255.157 204.157 253.657 205.657C252.157 207.157 250.122 208 248 208ZM208 192H240V160H208V192Z" fill="#EF596B"/>
<path d="M344 208H296C293.878 208 291.843 207.157 290.343 205.657C288.843 204.157 288 202.122 288 200V152C288 149.878 288.843 147.843 290.343 146.343C291.843 144.843 293.878 144 296 144H344C346.122 144 348.157 144.843 349.657 146.343C351.157 147.843 352 149.878 352 152V200C352 202.122 351.157 204.157 349.657 205.657C348.157 207.157 346.122 208 344 208V208ZM304 192H336V160H304V192Z" fill="#EF596B"/>
<path d="M248 304H200C197.878 304 195.843 303.157 194.343 301.657C192.843 300.157 192 298.122 192 296V248C192 245.878 192.843 243.843 194.343 242.343C195.843 240.843 197.878 240 200 240H248C250.122 240 252.157 240.843 253.657 242.343C255.157 243.843 256 245.878 256 248V296C256 298.122 255.157 300.157 253.657 301.657C252.157 303.157 250.122 304 248 304V304ZM208 288H240V256H208V288Z" fill="#EF596B"/>
<path d="M344 304H312C309.878 304 307.843 303.157 306.343 301.657C304.843 300.157 304 298.122 304 296V264C304 261.878 304.843 259.843 306.343 258.343C307.843 256.843 309.878 256 312 256H344C346.122 256 348.157 256.843 349.657 258.343C351.157 259.843 352 261.878 352 264V296C352 298.122 351.157 300.157 349.657 301.657C348.157 303.157 346.122 304 344 304V304ZM320 288H336V272H320V288Z" fill="#EF596B"/>
<path d="M288 272H272V232C272 229.878 272.843 227.843 274.343 226.343C275.843 224.843 277.878 224 280 224H304V240H288V272Z" fill="#EF596B"/>
<path d="M272 288H288V304H272V288Z" fill="#EF596B"/>
<path d="M320 224H344V240H320V224Z" fill="#EF596B"/>
<path d="M456 230.63V448H392V424L381.25 413.25C369.249 401.249 362.508 384.972 362.508 368C362.508 351.028 369.249 334.751 381.25 322.75L392 312L346 266C341.226 261.226 338.544 254.751 338.544 248C338.544 241.249 341.226 234.774 346 230C350.774 225.226 357.249 222.544 364 222.544C370.751 222.544 377.226 225.226 382 230L392 240V176H401.37C408.544 176 415.648 177.412 422.276 180.158C428.905 182.903 434.927 186.927 440 192C445.073 197.073 449.097 203.095 451.842 209.724C454.588 216.352 456 223.456 456 230.63Z" fill="#E4B9BD"/>
<path d="M419.31 244.69L408 256L392 240V217.37L419.31 244.69Z" fill="#FE99A0"/>
</svg>
